<?xml version="1.0" encoding="utf-8"?>
<svg width="107.39963mm" height="133.34998mm" viewBox="0 0 107.39963 133.34998" version="1.1" id="svg8" xmlns="http://www.w3.org/2000/svg">
  <g id="layer1" transform="translate(-57.879751,-21.54464)">
    <path style="fill:#000000;stroke-width:0.264583" d="M 61.098 154.478 C 60.339 153.691 58.621 152.443 58.056 151.26 L 58.019 148.148 L 57.95 102.115 L 57.88 56.082 L 75.147 38.813 L 92.414 21.545 L 123.635 21.548 C 148.86 21.55 155.111 21.619 156.18 21.905 C 160.621 23.093 164.089 26.685 165.026 31.07 C 165.261 32.167 165.318 46.75 165.257 90.336 L 165.176 148.148 L 165.14 151.104 C 164.575 152.287 163.011 153.691 162.252 154.479 L 158.626 157.068 L 112.064 157.533 L 65.347 157.534 L 61.098 154.478 Z M 155.843 151.934 C 157.364 151.245 159.352 149.233 159.916 147.813 C 160.397 146.601 160.413 144.724 160.413 89.41 C 160.413 42.833 160.349 32.078 160.065 31.277 C 159.579 29.904 157.615 27.81 156.117 27.065 L 154.857 26.439 L 126.623 26.366 L 98.389 26.293 L 98.312 41.448 L 98.236 56.602 L 97.442 58.037 C 96.423 59.878 94.566 61.36 92.804 61.738 C 91.931 61.925 86.433 62.026 77.056 62.026 L 62.649 62.026 L 62.715 104.425 C 62.79 151.929 62.596 147.615 64.757 149.959 C 65.958 151.263 67.257 151.992 68.867 152.268 C 69.449 152.367 89.035 152.433 112.391 152.415 C 151.652 152.384 154.931 152.347 155.843 151.934 Z M 79.583 126.32 C 79.583 124.229 79.639 123.938 80.046 123.936 C 80.431 123.934 142.806 123.936 143.414 123.938 C 143.523 123.939 143.612 125.01 143.612 126.32 L 143.612 128.701 L 111.597 128.701 L 79.583 128.701 L 79.583 126.32 Z M 79.583 113.222 L 79.583 110.707 L 111.531 110.774 L 143.48 110.842 L 143.556 113.289 L 143.632 115.736 L 111.607 115.736 L 79.583 115.736 L 79.583 113.222 Z M 80.178 102.59 C 79.614 102.477 79.583 102.346 79.583 100.107 L 79.583 97.745 L 111.597 97.745 L 143.612 97.745 L 143.612 100.126 L 143.612 102.507 L 112.722 102.511 C 95.732 102.513 81.594 102.559 81.303 102.613 C 81.012 102.667 80.506 102.657 80.178 102.591 L 80.178 102.59 Z M 79.583 87.161 L 79.583 84.78 L 111.597 84.78 L 143.612 84.78 L 143.612 87.161 L 143.612 89.543 L 111.597 89.543 L 79.583 89.543 L 79.583 87.161 Z M 79.583 74.228 C 79.583 71.995 79.613 71.872 80.178 71.78 C 80.506 71.727 94.912 71.714 112.193 71.753 L 143.612 71.822 L 143.612 74.2 L 143.612 76.578 L 111.597 76.578 L 79.583 76.578 L 79.583 74.228 Z M 92.644 56.301 L 93.341 55.604 L 93.341 41.749 C 93.341 34.129 93.311 27.895 93.274 27.895 C 93.237 27.895 86.66 34.443 78.657 42.447 L 64.107 56.999 L 78.026 56.999 L 91.946 56.999 L 92.644 56.301 Z" id="path56"/>
    <path style="fill:#ffffff;stroke-width:0.714286" d="m 85.737405,496.04968 -43.214286,-0.37323 -4.07971,-2.0034 C 32.543654,490.7759 25.484925,483.69167 24.426006,479.60502 22.650155,472.75155 22.15642,436.02123 21.98551,298.04985 l -0.176676,-142.6266 56.785714,-0.23054 56.785712,-0.23054 4.08434,-1.91433 c 5.3334,-2.49976 10.70565,-7.59553 14.18885,-13.45863 l 2.79824,-4.71013 0.004,-50.315603 c 0.002,-27.673577 0.21326,-53.480455 0.46939,-57.348616 l 0.46582,-7.033022 106.49489,0.507319 106.4949,0.507318 3.51359,1.882846 c 4.70685,2.522276 9.59453,7.015735 12.98484,11.937545 l 2.78729,4.046372 0.46078,37.235179 c 0.62374,50.403742 0.61963,343.788932 -0.005,375.449462 -0.58456,29.61738 -0.41694,28.90124 -8.56333,36.58612 -8.54937,8.06505 0.18932,7.25152 -83.6779,7.78997 -80.64753,0.51778 -146.24998,0.4948 -212.142854,-0.0743 z M 327.87051,399.7836 c -0.006,-4.22322 -0.20357,-8.40179 -0.44046,-9.28572 l -0.43069,-1.60714 H 206.4448 c -109.271066,0 -120.595134,0.10575 -120.988117,1.12985 -0.23846,0.62141 -0.433564,4.79998 -0.433564,9.28571 v 8.15587 H 206.45169 327.88026 l -0.01,-7.67857 z m -0.28661,-50.69836 c -0.27782,-5.00017 -0.67297,-9.2591 -0.87812,-9.46429 -0.20514,-0.20519 -54.66766,-0.48548 -121.02783,-0.62286 L 85.023119,338.7483 v 9.71407 9.71408 H 206.55606 328.08901 Z m -50.23935,-40.90839 50.53571,-4e-4 v -9.28571 -9.28572 H 206.45169 85.023119 v 8.26125 c 0,4.74491 0.341437,8.89922 0.802168,9.7601 l 0.802167,1.49887 70.090686,-0.47399 c 38.54989,-0.2607 92.83176,-0.47418 120.62641,-0.4744 z m 50.53571,-57.85754 V 241.0336 H 206.45169 85.023119 v 9.28571 9.28571 H 206.45169 327.88026 Z m 0,-49.28571 v -9.28572 H 207.30883 c -92.8254,0 -120.768671,0.19725 -121.428568,0.85714 -0.569814,0.56982 -0.857143,3.68255 -0.857143,9.28572 v 8.42857 H 206.45169 327.88026 Z" id="path58" transform="matrix(0.26458333,0,0,0.26458333,56.979912,20.977676)"/>
    <path style="fill:#ffffff;stroke-width:0.714286" d="m 82.165976,81.563566 54.642854,-54.458541 0.18331,51.750748 0.18331,51.750747 -2.6497,2.71354 -2.6497,2.71354 -52.176465,-0.006 -52.176466,-0.006 z" id="path60" transform="matrix(0.26458333,0,0,0.26458333,56.979912,20.977676)"/>
  </g>
</svg>